<svg width="250" height="300" viewBox="0 0 250 300" fill="none" xmlns="http://www.w3.org/2000/svg">
<g clip-path="url(#clip0_8_632)">
<rect width="250" height="300" fill="white"/>
<rect x="9" y="9" width="121" height="230" fill="#1F1F3A"/>
<path d="M240 122.5C240 186.841 184.161 239 127 239C69.8385 239 23.5 186.841 23.5 122.5C23.5 58.1587 69.8385 9 127 9C184.161 9 240 58.1587 240 122.5Z" fill="#1F1F3A"/>
<rect x="24" y="25" width="104.762" height="198" fill="white"/>
<path d="M224 122.709C224 178.098 175.655 223 126.165 223C76.6741 223 36.5542 178.098 36.5542 122.709C36.5542 67.3193 76.6741 25 126.165 25C175.655 25 224 67.3193 224 122.709Z" fill="white"/>
<path d="M158.658 14L168.781 25.0689L19.1231 161.941L8.99992 150.872L158.658 14Z" fill="#1F1F3A"/>
<path d="M168.726 223.43L157.898 233.81L53 124.38L63.8285 114L168.726 223.43Z" fill="#1F1F3A"/>
<rect x="176.72" y="16.8154" width="10" height="24.4892" transform="rotate(45.7768 176.72 16.8154)" fill="white"/>
<path d="M21.726 295.168C20.914 295.168 19.976 295.126 18.912 295.042C18.52 295.014 18.016 294.986 17.4 294.958C16.812 294.93 16.154 294.916 15.426 294.916L12.57 294.958C12.066 294.986 11.366 295 10.47 295C10.414 295 10.386 294.916 10.386 294.748C10.386 294.58 10.414 294.496 10.47 294.496C11.534 294.496 12.304 294.426 12.78 294.286C13.284 294.146 13.62 293.88 13.788 293.488C13.984 293.068 14.082 292.438 14.082 291.598V272.152C14.082 271.312 13.998 270.696 13.83 270.304C13.662 269.912 13.326 269.646 12.822 269.506C12.346 269.338 11.576 269.254 10.512 269.254C10.456 269.254 10.428 269.17 10.428 269.002C10.428 268.834 10.456 268.75 10.512 268.75L12.612 268.792C13.788 268.848 14.726 268.876 15.426 268.876C16.49 268.876 17.54 268.834 18.576 268.75C19.808 268.694 20.662 268.666 21.138 268.666C24.05 268.666 26.626 269.226 28.866 270.346C31.106 271.466 32.842 272.992 34.074 274.924C35.334 276.856 35.964 279.026 35.964 281.434C35.964 284.15 35.32 286.558 34.032 288.658C32.772 290.73 31.05 292.34 28.866 293.488C26.682 294.608 24.302 295.168 21.726 295.168ZM21.306 294.538C23.546 294.538 25.534 294.076 27.27 293.152C29.006 292.2 30.35 290.814 31.302 288.994C32.282 287.146 32.772 284.934 32.772 282.358C32.772 279.922 32.31 277.71 31.386 275.722C30.462 273.734 29.146 272.166 27.438 271.018C25.73 269.87 23.756 269.296 21.516 269.296C20.312 269.296 19.374 269.366 18.702 269.506C18.058 269.646 17.582 269.926 17.274 270.346C16.966 270.766 16.812 271.396 16.812 272.236V291.136C16.812 291.976 16.924 292.634 17.148 293.11C17.4 293.586 17.848 293.95 18.492 294.202C19.164 294.426 20.102 294.538 21.306 294.538ZM61.3071 295C60.6071 295 59.2631 293.81 57.2751 291.43C55.3151 289.022 52.9491 285.718 50.1771 281.518L52.5291 280.804C54.9651 284.304 56.9951 287.034 58.6191 288.994C60.2711 290.926 61.7271 292.326 62.9871 293.194C64.2471 294.062 65.4791 294.496 66.6831 294.496C66.7671 294.496 66.8091 294.58 66.8091 294.748C66.8091 294.916 66.7671 295 66.6831 295H61.3071ZM50.7231 268.624C52.9351 268.624 54.6431 269.128 55.8471 270.136C57.0511 271.144 57.6531 272.488 57.6531 274.168C57.6531 275.652 57.2191 277.01 56.3511 278.242C55.4831 279.446 54.3071 280.412 52.8231 281.14C51.3671 281.84 49.7991 282.19 48.1191 282.19C47.9511 282.19 47.3211 282.148 46.2291 282.064V291.598C46.2291 292.466 46.3131 293.096 46.4811 293.488C46.6491 293.88 46.9711 294.146 47.4471 294.286C47.9511 294.426 48.7351 294.496 49.7991 294.496C49.8831 294.496 49.9251 294.58 49.9251 294.748C49.9251 294.916 49.8831 295 49.7991 295C48.9311 295 48.2451 294.986 47.7411 294.958L44.8431 294.916L41.9871 294.958C41.4831 294.986 40.7691 295 39.8451 295C39.7891 295 39.7611 294.916 39.7611 294.748C39.7611 294.58 39.7891 294.496 39.8451 294.496C40.9091 294.496 41.6931 294.426 42.1971 294.286C42.7011 294.118 43.0511 293.838 43.2471 293.446C43.4431 293.054 43.5411 292.438 43.5411 291.598V272.152C43.5411 271.312 43.4431 270.696 43.2471 270.304C43.0791 269.912 42.7431 269.646 42.2391 269.506C41.7631 269.338 40.9931 269.254 39.9291 269.254C39.8451 269.254 39.8031 269.17 39.8031 269.002C39.8031 268.834 39.8451 268.75 39.9291 268.75L41.9871 268.792C43.1631 268.848 44.1151 268.876 44.8431 268.876C45.4591 268.876 46.0331 268.862 46.5651 268.834C47.0971 268.806 47.5451 268.778 47.9091 268.75C48.9731 268.666 49.9111 268.624 50.7231 268.624ZM54.7971 275.386C54.7971 273.202 54.3071 271.634 53.3271 270.682C52.3751 269.73 50.9751 269.254 49.1271 269.254C48.0351 269.254 47.2791 269.45 46.8591 269.842C46.4391 270.234 46.2291 271.032 46.2291 272.236V281.056C46.9011 281.168 47.7271 281.224 48.7071 281.224C50.8911 281.224 52.4451 280.748 53.3691 279.796C54.3211 278.844 54.7971 277.374 54.7971 275.386ZM74.6568 291.598C74.6568 292.466 74.7408 293.096 74.9088 293.488C75.0768 293.88 75.3988 294.146 75.8748 294.286C76.3788 294.426 77.1628 294.496 78.2268 294.496C78.3108 294.496 78.3528 294.58 78.3528 294.748C78.3528 294.916 78.3108 295 78.2268 295C77.3868 295 76.7148 294.986 76.2108 294.958L73.2288 294.916L70.3308 294.958C69.8268 294.986 69.1408 295 68.2728 295C68.1888 295 68.1468 294.916 68.1468 294.748C68.1468 294.58 68.1888 294.496 68.2728 294.496C69.3368 294.496 70.1068 294.426 70.5828 294.286C71.0868 294.146 71.4228 293.88 71.5908 293.488C71.7868 293.068 71.8848 292.438 71.8848 291.598V272.152C71.8848 271.312 71.7868 270.696 71.5908 270.304C71.4228 269.912 71.0868 269.646 70.5828 269.506C70.1068 269.338 69.3368 269.254 68.2728 269.254C68.1888 269.254 68.1468 269.17 68.1468 269.002C68.1468 268.834 68.1888 268.75 68.2728 268.75L70.3308 268.792C71.5068 268.848 72.4728 268.876 73.2288 268.876C74.0688 268.876 75.0768 268.848 76.2528 268.792L78.2268 268.75C78.3108 268.75 78.3528 268.834 78.3528 269.002C78.3528 269.17 78.3108 269.254 78.2268 269.254C77.1908 269.254 76.4208 269.338 75.9168 269.506C75.4128 269.674 75.0768 269.968 74.9088 270.388C74.7408 270.78 74.6568 271.396 74.6568 272.236V291.598ZM88.3081 291.43C88.3081 292.326 88.4201 292.984 88.6441 293.404C88.8961 293.796 89.3581 294.076 90.0301 294.244C90.7301 294.412 91.8221 294.496 93.3061 294.496C93.3901 294.496 93.4321 294.58 93.4321 294.748C93.4321 294.916 93.3901 295 93.3061 295C92.1581 295 91.2621 294.986 90.6181 294.958L86.9641 294.916L84.1501 294.958C83.6181 294.986 82.9041 295 82.0081 295C81.9521 295 81.9241 294.916 81.9241 294.748C81.9241 294.58 81.9521 294.496 82.0081 294.496C83.0721 294.496 83.8421 294.426 84.3181 294.286C84.8221 294.146 85.1581 293.88 85.3261 293.488C85.4941 293.068 85.5781 292.438 85.5781 291.598V272.152C85.5781 271.312 85.4941 270.696 85.3261 270.304C85.1581 269.912 84.8221 269.646 84.3181 269.506C83.8421 269.338 83.0721 269.254 82.0081 269.254C81.9521 269.254 81.9241 269.17 81.9241 269.002C81.9241 268.834 81.9521 268.75 82.0081 268.75L84.1081 268.792C85.2841 268.848 86.2221 268.876 86.9221 268.876C87.6221 268.876 88.4061 268.834 89.2741 268.75C89.6101 268.75 90.1421 268.736 90.8701 268.708C91.5981 268.652 92.2281 268.624 92.7601 268.624C95.3361 268.624 97.3941 269.198 98.9341 270.346C100.502 271.494 101.286 273.244 101.286 275.596C101.286 277.444 100.824 278.998 99.9001 280.258C99.0041 281.518 97.8421 282.456 96.4141 283.072C94.9861 283.688 93.5161 283.996 92.0041 283.996C91.1921 283.996 90.5201 283.926 89.9881 283.786C89.9041 283.786 89.8621 283.716 89.8621 283.576C89.8621 283.492 89.8761 283.408 89.9041 283.324C89.9601 283.24 90.0161 283.212 90.0721 283.24C90.5201 283.352 91.0241 283.408 91.5841 283.408C93.4321 283.408 94.9861 282.806 96.2461 281.602C97.5341 280.398 98.1781 278.662 98.1781 276.394C98.1781 274.182 97.5761 272.446 96.3721 271.186C95.1681 269.898 93.6281 269.254 91.7521 269.254C90.7441 269.254 90.0161 269.31 89.5681 269.422C89.1201 269.534 88.7981 269.8 88.6021 270.22C88.4061 270.612 88.3081 271.284 88.3081 272.236V291.43ZM110.945 269.506C109.209 269.506 107.893 269.954 106.997 270.85C106.129 271.746 105.499 273.272 105.107 275.428C105.107 275.484 105.023 275.512 104.855 275.512C104.715 275.512 104.645 275.484 104.645 275.428C104.757 274.42 104.883 273.104 105.023 271.48C105.163 269.856 105.233 268.638 105.233 267.826C105.233 267.686 105.303 267.616 105.443 267.616C105.611 267.616 105.695 267.686 105.695 267.826C105.695 268.442 106.451 268.75 107.963 268.75C110.371 268.834 113.185 268.876 116.405 268.876C118.057 268.876 119.807 268.848 121.655 268.792L124.511 268.75C125.519 268.75 126.261 268.68 126.737 268.54C127.241 268.4 127.563 268.12 127.703 267.7C127.731 267.588 127.815 267.532 127.955 267.532C128.095 267.532 128.165 267.588 128.165 267.7C128.081 268.512 127.997 269.744 127.913 271.396C127.829 273.048 127.787 274.392 127.787 275.428C127.787 275.484 127.703 275.512 127.535 275.512C127.367 275.512 127.283 275.484 127.283 275.428C127.199 273.244 126.751 271.718 125.939 270.85C125.127 269.954 123.783 269.506 121.907 269.506C120.647 269.506 119.751 269.562 119.219 269.674C118.687 269.786 118.323 270.024 118.127 270.388C117.931 270.752 117.833 271.368 117.833 272.236V291.598C117.833 292.466 117.931 293.096 118.127 293.488C118.323 293.88 118.701 294.146 119.261 294.286C119.821 294.426 120.703 294.496 121.907 294.496C121.991 294.496 122.033 294.58 122.033 294.748C122.033 294.916 121.991 295 121.907 295C120.983 295 120.241 294.986 119.681 294.958L116.405 294.916L113.255 294.958C112.695 294.986 111.925 295 110.945 295C110.889 295 110.861 294.916 110.861 294.748C110.861 294.58 110.889 294.496 110.945 294.496C112.149 294.496 113.031 294.426 113.591 294.286C114.151 294.146 114.529 293.88 114.725 293.488C114.949 293.068 115.061 292.438 115.061 291.598V272.152C115.061 271.284 114.963 270.682 114.767 270.346C114.571 269.982 114.207 269.758 113.675 269.674C113.143 269.562 112.233 269.506 110.945 269.506ZM138.026 291.598C138.026 292.466 138.11 293.096 138.278 293.488C138.446 293.88 138.768 294.146 139.244 294.286C139.748 294.426 140.532 294.496 141.596 294.496C141.68 294.496 141.722 294.58 141.722 294.748C141.722 294.916 141.68 295 141.596 295C140.756 295 140.084 294.986 139.58 294.958L136.598 294.916L133.7 294.958C133.196 294.986 132.51 295 131.642 295C131.558 295 131.516 294.916 131.516 294.748C131.516 294.58 131.558 294.496 131.642 294.496C132.706 294.496 133.476 294.426 133.952 294.286C134.456 294.146 134.792 293.88 134.96 293.488C135.156 293.068 135.254 292.438 135.254 291.598V272.152C135.254 271.312 135.156 270.696 134.96 270.304C134.792 269.912 134.456 269.646 133.952 269.506C133.476 269.338 132.706 269.254 131.642 269.254C131.558 269.254 131.516 269.17 131.516 269.002C131.516 268.834 131.558 268.75 131.642 268.75L133.7 268.792C134.876 268.848 135.842 268.876 136.598 268.876C137.438 268.876 138.446 268.848 139.622 268.792L141.596 268.75C141.68 268.75 141.722 268.834 141.722 269.002C141.722 269.17 141.68 269.254 141.596 269.254C140.56 269.254 139.79 269.338 139.286 269.506C138.782 269.674 138.446 269.968 138.278 270.388C138.11 270.78 138.026 271.396 138.026 272.236V291.598ZM155.877 294.496C157.613 294.804 159.125 294.958 160.413 294.958C161.085 294.958 161.799 294.916 162.555 294.832C165.075 296.484 168.225 298.024 172.005 299.452C175.785 300.908 179.719 302.056 183.807 302.896C187.923 303.764 191.717 304.198 195.189 304.198C199.053 304.198 202.119 303.848 204.387 303.148C204.443 303.12 204.499 303.176 204.555 303.316C204.611 303.484 204.597 303.582 204.513 303.61C203.141 304.058 201.587 304.45 199.851 304.786C198.115 305.122 195.833 305.29 193.005 305.29C181.553 305.29 169.177 301.692 155.877 294.496ZM158.985 295.504C156.381 295.504 154.057 294.902 152.013 293.698C149.997 292.466 148.429 290.814 147.309 288.742C146.217 286.642 145.671 284.36 145.671 281.896C145.671 279.012 146.399 276.548 147.855 274.504C149.311 272.432 151.173 270.878 153.441 269.842C155.737 268.806 158.075 268.288 160.455 268.288C163.115 268.288 165.453 268.918 167.469 270.178C169.485 271.41 171.025 273.048 172.089 275.092C173.181 277.136 173.727 279.306 173.727 281.602C173.727 284.15 173.055 286.488 171.711 288.616C170.367 290.744 168.561 292.424 166.293 293.656C164.053 294.888 161.617 295.504 158.985 295.504ZM160.455 294.622C162.359 294.622 164.067 294.16 165.579 293.236C167.119 292.312 168.323 290.968 169.191 289.204C170.087 287.412 170.535 285.27 170.535 282.778C170.535 280.146 170.045 277.808 169.065 275.764C168.085 273.72 166.699 272.124 164.907 270.976C163.143 269.828 161.071 269.254 158.691 269.254C155.611 269.254 153.203 270.248 151.467 272.236C149.731 274.224 148.863 276.954 148.863 280.426C148.863 283.058 149.353 285.466 150.333 287.65C151.313 289.806 152.685 291.514 154.449 292.774C156.213 294.006 158.215 294.622 160.455 294.622ZM199.794 273.37C199.794 270.626 198.576 269.254 196.14 269.254C196.056 269.254 196.014 269.17 196.014 269.002C196.014 268.834 196.056 268.75 196.14 268.75L197.946 268.792C198.954 268.848 199.752 268.876 200.34 268.876C200.816 268.876 201.502 268.848 202.398 268.792L204.162 268.75C204.218 268.75 204.246 268.834 204.246 269.002C204.246 269.17 204.218 269.254 204.162 269.254C201.922 269.254 200.802 270.626 200.802 273.37V285.298C200.802 288.518 199.906 291.038 198.114 292.858C196.322 294.65 193.914 295.546 190.89 295.546C188.818 295.546 186.998 295.14 185.43 294.328C183.89 293.516 182.686 292.368 181.818 290.884C180.978 289.372 180.558 287.608 180.558 285.592V272.152C180.558 271.312 180.474 270.696 180.306 270.304C180.138 269.912 179.802 269.646 179.298 269.506C178.822 269.338 178.052 269.254 176.988 269.254C176.932 269.254 176.904 269.17 176.904 269.002C176.904 268.834 176.932 268.75 176.988 268.75L179.046 268.792C180.222 268.848 181.174 268.876 181.902 268.876C182.658 268.876 183.652 268.848 184.884 268.792L186.816 268.75C186.9 268.75 186.942 268.834 186.942 269.002C186.942 269.17 186.9 269.254 186.816 269.254C185.78 269.254 185.01 269.338 184.506 269.506C184.03 269.674 183.708 269.968 183.54 270.388C183.372 270.78 183.288 271.396 183.288 272.236V284.122C183.288 287.426 184.03 289.946 185.514 291.682C186.998 293.418 189.098 294.286 191.814 294.286C194.334 294.286 196.294 293.502 197.694 291.934C199.094 290.338 199.794 288.14 199.794 285.34V273.37ZM206.902 295C206.846 295 206.818 294.916 206.818 294.748C206.818 294.58 206.846 294.496 206.902 294.496C207.966 294.496 208.736 294.426 209.212 294.286C209.716 294.146 210.052 293.88 210.22 293.488C210.416 293.068 210.514 292.438 210.514 291.598V272.152C210.514 271.312 210.416 270.696 210.22 270.304C210.052 269.912 209.716 269.646 209.212 269.506C208.736 269.338 207.966 269.254 206.902 269.254C206.846 269.254 206.818 269.17 206.818 269.002C206.818 268.834 206.846 268.75 206.902 268.75H223.786C224.038 268.75 224.164 268.876 224.164 269.128L224.248 274.294C224.248 274.378 224.164 274.434 223.996 274.462C223.856 274.462 223.786 274.42 223.786 274.336C223.702 272.852 223.254 271.704 222.442 270.892C221.63 270.052 220.552 269.632 219.208 269.632H216.646C215.666 269.632 214.938 269.716 214.462 269.884C213.986 270.024 213.65 270.276 213.454 270.64C213.286 271.004 213.202 271.578 213.202 272.362V291.43C213.202 292.186 213.286 292.76 213.454 293.152C213.65 293.516 213.972 293.768 214.42 293.908C214.868 294.048 215.568 294.118 216.52 294.118H219.88C221.224 294.118 222.344 293.642 223.24 292.69C224.136 291.738 224.738 290.422 225.046 288.742C225.046 288.686 225.102 288.658 225.214 288.658C225.298 288.658 225.368 288.686 225.424 288.742C225.508 288.77 225.55 288.798 225.55 288.826C225.298 290.59 225.172 292.438 225.172 294.37C225.172 294.594 225.116 294.762 225.004 294.874C224.92 294.958 224.752 295 224.5 295H206.902ZM222.148 285.214C222.148 283.982 221.84 283.1 221.224 282.568C220.636 282.036 219.642 281.77 218.242 281.77H211.942V280.888H218.368C219.712 280.888 220.664 280.664 221.224 280.216C221.812 279.768 222.106 279.012 222.106 277.948C222.106 277.892 222.19 277.864 222.358 277.864C222.526 277.864 222.61 277.892 222.61 277.948L222.568 281.35C222.568 282.162 222.582 282.778 222.61 283.198L222.652 285.214C222.652 285.27 222.568 285.298 222.4 285.298C222.232 285.298 222.148 285.27 222.148 285.214Z" fill="#1F1F3A"/>
</g>
<defs>
<clipPath id="clip0_8_632">
<rect width="250" height="300" fill="white"/>
</clipPath>
</defs>
</svg>
